# xmcd
#
# Track frame offsets:
#        150
#        16299
#        29484
#        42146
#        56919
#        68606
#        84068
#        100236
#        113319
#        125654
#        140373
#        152071
#
# Disc length: 2224 seconds
#
# Revision: 0
# Processed by: cddbd v1.5.2PL0 Copyright (c) Steve Scherf et al.
# Submitted via: CDGFix 3.7i
#
DISCID=9008ae0c
DTITLE=Wilson Pickett - CB40367
DYEAR=1900
DGENRE=Karaoke
TTITLE0=Wilson Pickett - Mustang Sally (Vocals)
TTITLE1=Wilson Pickett - Land Of 1000 Dances (Vocals)
TTITLE2=Wilson Pickett - In The Midnight Hour  (Vocals)
TTITLE3=Wilson Pickett - 634-5789 (Soulsville, USA)  (Vocals)
TTITLE4=Wilson Pickett - Don't Knock My Love (Vocals)
TTITLE5=Wilson Pickett - Funky Broadway (Vocals)
TTITLE6=Wilson Pickett - Mustang Sally
TTITLE7=Wilson Pickett - Land Of 1000 Dances
TTITLE8=Wilson Pickett - In The Midnight Hour
TTITLE9=Wilson Pickett - 634-5789 (Soulsville, USA)
TTITLE10=Wilson Pickett - Don't Knock My Love
TTITLE11=Wilson Pickett - Funky Broadway
EXTD=
EXTT0=
EXTT1=
EXTT2=
EXTT3=
EXTT4=
EXTT5=
EXTT6=
EXTT7=
EXTT8=
EXTT9=
EXTT10=
EXTT11=
PLAYORDER=
